<?xml version="1.0" standalone="no"?>
<!DOCTYPE svg PUBLIC "-//W3C//DTD SVG 20010904//EN"
 "http://www.w3.org/TR/2001/REC-SVG-20010904/DTD/svg10.dtd">
<svg version="1.0" xmlns="http://www.w3.org/2000/svg"
 width="48.000000pt" height="48.000000pt" viewBox="0 0 48.000000 48.000000"
 preserveAspectRatio="xMidYMid meet">

<g transform="translate(0.000000,48.000000) scale(0.100000,-0.100000)"
fill="#000000" stroke="none">
<path d="M187 434 c-4 -4 -7 -40 -7 -81 l0 -73 -42 0 -43 0 73 -72 72 -73 72
73 73 72 -42 0 -42 0 -3 78 -3 77 -50 3 c-28 2 -54 0 -58 -4z m73 -114 c0 -69
2 -80 17 -80 14 0 12 -5 -10 -27 l-27 -28 -27 28 c-22 22 -24 27 -10 27 15 0
17 11 17 80 0 73 2 80 20 80 18 0 20 -7 20 -80z"/>
<path d="M40 60 c0 -19 7 -20 200 -20 193 0 200 1 200 20 0 19 -7 20 -200 20
-193 0 -200 -1 -200 -20z"/>
</g>
</svg>
